<?xml version="1.0" standalone="no"?>
<!DOCTYPE svg PUBLIC "-//W3C//DTD SVG 20010904//EN"
 "http://www.w3.org/TR/2001/REC-SVG-20010904/DTD/svg10.dtd">
<svg version="1.0" xmlns="http://www.w3.org/2000/svg"
 width="202.000000pt" height="296.000000pt" viewBox="0 0 202.000000 296.000000"
 preserveAspectRatio="xMidYMid meet">

<g transform="translate(0.000000,296.000000) scale(0.100000,-0.100000)"
fill="#000000" stroke="none">
<path d="M903 2869 c-120 -21 -224 -80 -314 -176 -105 -114 -149 -233 -149
-402 l0 -101 -185 0 -185 0 0 -1065 0 -1065 930 0 930 0 -2 1063 -3 1062 -182
3 -183 2 0 93 c0 173 -55 312 -166 423 -130 131 -320 194 -491 163z m289 -142
c55 -27 92 -54 136 -101 95 -102 132 -201 132 -356 l0 -80 -461 0 -461 0 4
118 c4 111 6 123 40 193 42 88 98 154 169 200 89 57 140 70 260 67 99 -3 110
-6 181 -41z m638 -1607 l0 -960 -830 0 -830 0 0 960 0 960 830 0 830 0 0 -960z"/>
</g>
</svg>
